<svg width="483" height="521" viewBox="0 0 483 521" fill="none" xmlns="http://www.w3.org/2000/svg">
<g clip-path="url(#clip0_61_2360)">
<path d="M85.4865 102.592C34.0215 143.67 1.06573e-05 187.237 2.97844 247.44C5.95687 307.643 36.9438 364.559 83.3511 402.069C129.758 439.579 190.597 458.155 251.076 456.977C279.995 456.405 309.138 451.425 336.045 440.151C354.12 432.512 371.041 422.398 386.319 410.1C420.039 383.086 445.55 347.23 459.993 306.555C484.551 236.761 472.21 156.401 429.647 97.5782C387.083 38.7553 315.826 2.47889 242.388 0.123282C168.95 -2.23233 94.6241 28.8281 42.3499 81.7508C24.8277 99.4851 -2.47265 141.269 0.17984 165.644C0.17984 165.644 38.4049 88.7391 85.4865 102.592Z" fill="#FFEBCB"/>
<path d="M152.687 467.858C152.687 467.858 148.427 478.458 152.147 484.829C155.867 491.201 202.724 499.075 236.442 499.154C276.342 499.232 303.642 492.367 308.959 484.639C314.275 476.91 313.454 463.606 313.454 463.606L152.687 467.858Z" fill="#2B9AB1"/>
<mask id="mask0_61_2360" style="mask-type:alpha" maskUnits="userSpaceOnUse" x="150" y="463" width="164" height="37">
<path d="M152.687 467.858C152.687 467.858 148.427 478.458 152.147 484.829C155.867 491.201 202.724 499.075 236.442 499.154C276.342 499.232 303.642 492.367 308.959 484.639C314.275 476.91 313.454 463.606 313.454 463.606L152.687 467.858Z" fill="#4DD8F7"/>
</mask>
<g mask="url(#mask0_61_2360)">
<path d="M163.915 454.117C159.145 460.854 156.134 468.671 155.153 476.862C154.171 485.052 155.251 493.358 158.295 501.027C160.161 493.029 159.97 484.684 161.262 476.574C162.555 468.463 165.758 460.073 172.502 455.373C170.132 472 170.454 488.899 173.457 505.424C177.301 497.976 175.828 489.069 175.941 480.69C176.053 472.311 179.133 462.507 187.18 460.107C191.777 476.316 183.887 495.059 191.811 509.945L195.183 474.891C195.632 470.314 197.644 464.324 202.23 464.728L208.782 520.478C209.944 505.693 211.105 490.913 212.266 476.136C212.469 473.59 212.716 470.92 214.155 468.811C215.593 466.702 218.65 465.446 220.797 466.904C222.001 467.914 222.826 469.303 223.135 470.842C227.215 484.549 224.596 499.232 224.978 513.523C225.034 515.665 225.551 518.313 227.619 518.885C233.318 504.841 229.98 488.598 234.543 474.117C235.273 471.795 236.555 469.226 238.949 468.733C243.984 474.857 244.006 483.517 244.456 491.425C244.972 500.43 246.346 509.366 248.558 518.111C256.741 503.248 246.996 482.373 257.235 468.834C260.798 473.937 261.495 480.41 262.371 486.568C263.98 497.768 266.552 508.809 270.059 519.569C272.633 510.36 270.936 500.59 270.565 491.044C270.194 481.498 271.689 470.931 278.803 464.56C283.985 478.963 281.276 496.271 290.459 508.52C290.414 498.896 290.376 489.275 290.346 479.658C290.346 475.104 290.537 469.989 293.875 466.882C297.406 478.962 299.584 491.396 300.372 503.955C301.631 491.93 302.886 479.909 304.137 467.891C304.384 465.491 304.497 462.687 302.687 461.071C301.698 460.317 300.541 459.813 299.315 459.602L287.727 456.697" fill="#4DD8F7"/>
</g>
<path d="M253.459 211.803C267.182 209.245 279.736 221.506 274.971 242.695C283.097 245.051 328.178 284.726 328.178 284.726C328.178 284.726 321.693 261.798 318.501 246.778C324.66 230.412 347.791 228.158 357.288 232.465C366.583 236.683 393.535 320.991 381.7 346.97C378.926 352.968 374.559 358.092 369.072 361.786C363.585 365.48 357.189 367.603 350.578 367.924C330.763 369.158 306.834 346.667 306.834 346.667C306.834 346.667 328.268 452.109 312.454 470.954C290.29 497.449 170.636 484.414 150.529 473.321C139.537 467.274 140.346 438.682 139.761 425.3C114.967 414.542 80.8896 383.067 85.4753 357.346C93.4664 312.601 120.52 261.798 178.357 242.56C171.782 217.961 191.564 207.451 191.564 207.451L253.459 211.803Z" fill="#4DD8F7"/>
<mask id="mask1_61_2360" style="mask-type:alpha" maskUnits="userSpaceOnUse" x="85" y="207" width="300" height="280">
<path d="M253.459 211.803C267.182 209.245 279.736 221.506 274.971 242.695C283.097 245.051 328.178 284.726 328.178 284.726C328.178 284.726 321.693 261.798 318.501 246.778C324.66 230.412 347.791 228.158 357.288 232.465C366.583 236.683 393.535 320.991 381.7 346.97C378.926 352.968 374.559 358.092 369.072 361.786C363.585 365.48 357.189 367.603 350.578 367.924C330.763 369.158 306.834 346.667 306.834 346.667C306.834 346.667 328.268 452.109 312.454 470.954C290.29 497.449 170.636 484.414 150.529 473.32C139.537 467.274 140.346 438.682 139.761 425.3C114.967 414.542 80.8896 383.067 85.4753 357.346C93.4664 312.601 120.52 261.798 178.357 242.56C171.782 217.961 191.564 207.451 191.564 207.451L253.459 211.803Z" fill="#205175"/>
</mask>
<g mask="url(#mask1_61_2360)">
<path d="M121.441 442.619L139.761 425.3C139.761 425.3 159.093 432.625 165.747 424.245C172.4 415.866 176.638 404.626 176.638 404.626L250.638 365.568L276.971 367.924L279.86 388.877C279.86 388.877 281.063 422.383 251.964 433.802C217.695 447.263 169.995 437.111 169.995 437.111C169.995 437.111 170.456 470.382 221.303 485.626C164.881 514.241 118.35 479.613 118.35 479.613L121.441 442.619Z" fill="#2B9AB1"/>
<path d="M169.939 373.532C169.939 373.532 157.149 361.923 132.355 351.524C141.178 331.165 157.149 305.747 157.149 305.747C157.149 305.747 160.228 310.75 150.012 329.763C162.094 321.911 164.409 335.775 145.359 346.925C160.7 346.465 157.149 353.891 157.149 353.891C157.149 353.891 173.704 359.298 169.939 373.532Z" fill="#2B9AB1"/>
<path d="M104.627 284.838C90.7465 311.097 91.3872 343.336 101.255 371.334C111.123 399.332 129.556 423.583 149.955 445.188C147.179 441.823 142.301 441.396 138.019 440.589C128.657 438.816 120.149 434.128 111.854 429.439C104.526 425.3 97.0294 420.959 91.8031 414.363C87.0263 408.328 84.4975 400.902 82.407 393.454C79.2466 382.741 77.1756 371.738 76.2253 360.61C74.3157 333.245 81.4972 306.014 96.6585 283.133" fill="#2B9AB1"/>
<path d="M315.017 359.298L306.834 346.667C306.834 346.667 304.497 334.082 299.518 309.011C336.192 353.633 381.632 342.752 389.803 296.179C406.494 374.228 344.655 385.916 344.655 385.916L315.017 359.298Z" fill="#2B9AB1"/>
<path d="M328.189 284.726L331.831 299.219L291.526 253.968L315.017 263.402L328.189 284.726Z" fill="#2B9AB1"/>
<path d="M326.728 397.212C322.232 404.884 317.737 412.591 311.971 419.399C304.103 428.833 294.055 436.315 283.737 443.045C267.721 453.477 250.503 462.406 232.036 467.297C239.904 469.888 248.525 469.114 256.696 467.645C278.006 463.685 298.25 455.316 316.123 443.075C333.996 430.834 349.102 414.993 360.469 396.573" fill="#2B9AB1"/>
<path d="M320.591 247.485C320.591 247.485 328.122 255.337 342.317 250.917C356.512 246.498 356.141 233.968 356.141 233.968C356.141 233.968 331.359 226.015 320.591 247.485Z" fill="#2B9AB1"/>
<path d="M150.607 384.75C149.16 388.476 148.248 392.389 147.899 396.371C147.281 401.553 146.943 406.948 148.708 411.862C149.585 414.296 151.169 416.719 153.642 417.47C154.704 417.74 155.814 417.76 156.885 417.528C157.956 417.297 158.958 416.82 159.812 416.135C161.515 414.754 162.922 413.045 163.948 411.11C168.187 403.907 170.591 395.776 170.951 387.431C171.178 384.71 170.841 381.972 169.962 379.388C169.508 378.1 168.766 376.933 167.792 375.975C166.818 375.016 165.638 374.292 164.342 373.858C158.374 372.153 152.529 380.173 150.607 384.75Z" fill="#2B9AB1"/>
<path d="M181.886 207.451C181.886 207.451 183.696 234.372 223.371 237.445C225.619 237.614 233.868 262.314 236.319 262.314C238.769 262.314 245.895 237.737 248.142 237.445C275.038 233.957 283.996 212.543 283.996 212.543C283.996 212.543 213.941 173.777 181.886 207.451Z" fill="#2B9AB1"/>
<path d="M193.452 248.506C193.452 248.506 238.274 268.091 273.172 250.222C255.032 270.233 214.11 270.065 193.452 248.506Z" fill="#2B9AB1"/>
</g>
<path d="M219.415 62.8162L218.707 61.9862C228.822 53.3938 237.926 37.1625 234.779 24.0272C233.453 18.5196 230.092 14.9749 225.057 13.7747C222.819 13.1705 220.481 13.027 218.185 13.3528C215.89 13.6787 213.685 14.4672 211.704 15.6704C202.308 21.3912 198.937 35.3678 198.937 35.5024L197.813 35.2556C197.947 34.6611 201.364 20.6733 211.12 14.7057C213.223 13.4256 215.565 12.5855 218.003 12.2365C220.441 11.8875 222.925 12.0368 225.304 12.6754C230.688 13.9654 234.43 17.8914 235.824 23.7356C238.69 35.637 231.632 52.4291 219.415 62.8162Z" fill="#8D39B2"/>
<path d="M171.962 92.9681C164.016 92.9681 156.171 90.7246 151.181 83.5793C144.291 73.7418 147.382 60.8869 153.496 52.5077C159.116 44.8463 169.377 37.9253 181.448 41.6831L181.122 42.7263C169.602 39.1817 159.767 45.7886 154.384 53.1583C148.494 61.2234 145.493 73.5623 152.136 82.9511C165.185 101.583 199.015 85.3516 199.341 85.1946L199.813 86.1705C199.6 86.2826 185.652 92.9681 171.962 92.9681Z" fill="#8D39B2"/>
<path d="M195.621 89.7375C195.621 89.7375 168.883 95.8509 158.936 78.7447C148.73 61.1785 168.04 28.615 198.352 35.3678C208.029 8.03149 237.6 17.6783 240.061 35.6258C245.097 72.3396 217.583 81.8855 217.583 81.8855" fill="#205175"/>
<path d="M200.285 81.5153C200.285 81.5153 172.344 77.9258 177.211 65.9795C182.078 54.0332 194.126 60.0793 194.126 60.0793C194.126 60.0793 192.44 45.9905 201.184 43.3993C209.929 40.8081 211.3 50.6344 211.3 50.6344C211.3 50.6344 218.291 40.8642 225.102 45.5081C231.913 50.152 216.178 74.2578 216.178 74.2578L200.285 81.5153Z" fill="#4DD8F7"/>
<path d="M197.363 76.5349C197.363 76.5349 171.737 63.938 157.609 112.43C173.345 99.2384 203.466 112.979 206.164 79.6308" fill="#FFBD5D"/>
<path d="M197.442 85.3179C197.442 85.3179 185.146 67.6397 203.736 57.7685C222.326 47.8974 233.632 62.8723 227.091 76.0638" fill="#FFD55D"/>
<path d="M188.54 189.795C188.54 189.795 170.243 182.459 169.95 150.243C169.681 121.213 179.403 91.4089 202.544 73.0127C232.07 49.5688 284.513 61.1449 302.878 92.755C319.366 121.146 321.367 188.572 272.442 212.005C233.543 230.648 188.54 189.795 188.54 189.795Z" fill="#205175"/>
<path d="M253.009 68.6492C253.009 68.6492 297.27 69.7709 304.508 121.92C286.604 85.3179 253.009 68.6492 253.009 68.6492Z" fill="#4186B9"/>
<path d="M181.909 165.532C181.909 165.532 177.245 191.466 199.959 214.888C222.674 238.309 271.588 241.753 288.919 185.196C301.631 194.607 314.859 190.389 315.017 170.726C315.151 153.743 294.426 147.977 290.695 169.806C284.715 165.05 289.975 139.665 289.975 139.665C289.975 139.665 266.227 140.293 249.851 110.501C225.911 129.188 196.689 123.748 196.689 123.748C196.689 123.748 193.935 149.043 186.809 152.161C178.627 124.298 165.747 133.361 162.881 135.874C148.674 148.291 166.174 177.232 181.909 165.532Z" fill="#F5ABBC"/>
<mask id="mask2_61_2360" style="mask-type:alpha" maskUnits="userSpaceOnUse" x="157" y="110" width="159" height="121">
<path d="M181.909 165.532C181.909 165.532 177.245 191.466 199.959 214.888C222.674 238.309 271.588 241.753 288.919 185.196C301.631 194.607 314.859 190.389 315.017 170.726C315.151 153.743 294.426 147.977 290.695 169.806C284.715 165.05 289.975 139.665 289.975 139.665C289.975 139.665 266.227 140.293 249.851 110.501C225.911 129.188 196.689 123.748 196.689 123.748C196.689 123.748 193.935 149.043 186.809 152.161C178.627 124.298 165.747 133.361 162.881 135.874C148.674 148.291 166.174 177.232 181.909 165.532Z" fill="black"/>
</mask>
<g mask="url(#mask2_61_2360)">
<path d="M235.734 240.025C287.094 240.025 328.729 206.809 328.729 165.835C328.729 124.861 287.094 91.6445 235.734 91.6445C184.375 91.6445 142.74 124.861 142.74 165.835C142.74 206.809 184.375 240.025 235.734 240.025Z" fill="#F5ABBC"/>
<path d="M180.38 169.088C181.56 178.012 184.688 186.569 189.543 194.155C194.398 201.741 200.862 208.171 208.479 212.992C222.764 221.887 239.466 224.209 255.594 222.987C262.964 222.596 270.216 220.977 277.05 218.197C285.536 214.529 293.044 208.404 300.99 203.345C286.963 233.542 257.527 251.837 228.305 251.904C219.853 251.904 211.266 250.525 203.578 246.296C193.047 240.474 184.955 229.593 179.56 217.445C174.165 205.297 171.243 191.87 168.871 178.443" fill="#F390AE"/>
</g>
<path d="M178.987 155.919C178.987 155.919 175.918 141.337 170.22 141.482C164.522 141.628 171.018 151.97 171.018 151.97C171.018 151.97 165.522 151.275 165.747 156.02C165.972 160.765 175.075 160.406 178.987 155.919Z" fill="#F390AE"/>
<path d="M294.01 175.538C294.01 175.538 301.788 162.739 307.082 164.825C312.375 166.912 302.844 174.45 302.844 174.45C302.844 174.45 308.262 175.571 306.463 180.058C304.665 184.545 296.202 181.079 294.01 175.538Z" fill="#F390AE"/>
<path d="M252.728 107.091C252.728 107.091 231.014 139.093 198.172 136.603C217.976 133.888 232.374 114.438 232.374 114.438" fill="#205175"/>
<path d="M249.514 107.685C249.615 108.347 243.062 117.59 257.909 130.691C252.593 117.489 256.628 111.622 256.628 111.622" fill="#205175"/>
<path d="M207.658 174.225C207.297 176.331 206.317 178.282 204.845 179.832C203.372 181.382 201.472 182.462 199.385 182.934C197.297 183.407 195.116 183.251 193.118 182.487C191.119 181.722 189.392 180.384 188.156 178.64C186.919 176.896 186.229 174.826 186.171 172.691C186.113 170.555 186.691 168.451 187.832 166.643C188.973 164.836 190.625 163.406 192.579 162.536C194.534 161.665 196.703 161.392 198.813 161.752C200.215 161.991 201.555 162.503 202.758 163.259C203.962 164.016 205.004 165.001 205.825 166.16C206.647 167.318 207.231 168.626 207.546 170.01C207.86 171.394 207.899 172.827 207.658 174.225Z" fill="#F37AAA"/>
<path d="M281.59 192.421C285.346 187.78 284.622 180.978 279.971 177.23C275.321 173.481 268.507 174.204 264.751 178.845C260.994 183.486 261.719 190.287 266.369 194.036C271.019 197.785 277.834 197.061 281.59 192.421Z" fill="#F37AAA"/>
<path d="M215.672 151.096C215.672 151.096 226.675 160.204 225.338 163.345C224 166.486 210.198 162.986 209.783 160.697C209.367 158.409 220.887 160.496 220.887 160.496C220.887 160.496 212.008 152.868 215.672 151.096Z" fill="#371E34"/>
<path d="M267.721 160.406C267.721 160.406 254.313 165.353 254.526 168.763C254.74 172.173 268.935 173.44 270.082 171.41C271.228 169.38 259.674 167.551 259.674 167.551C259.674 167.551 270.599 163.311 267.721 160.406Z" fill="#371E34"/>
<path d="M234.262 180.249C234.846 182.818 248.266 184.971 249.289 179.453C249.907 176.11 234.262 180.249 234.262 180.249Z" fill="#F37AAA"/>
<path d="M241.163 188.449C234.307 186.306 226.417 196.413 229.631 199.217C232.846 202.022 237.027 198.017 246.097 201.618C249.66 203.031 249.84 191.175 241.163 188.449Z" fill="#681E34"/>
<mask id="mask3_61_2360" style="mask-type:alpha" maskUnits="userSpaceOnUse" x="228" y="188" width="21" height="14">
<path d="M241.163 188.449C234.307 186.306 226.417 196.413 229.631 199.217C232.846 202.022 237.027 198.017 246.097 201.618C249.66 203.031 249.84 191.175 241.163 188.449Z" fill="black"/>
</mask>
<g mask="url(#mask3_61_2360)">
<path d="M223.596 202.941C223.077 201.833 222.948 200.582 223.23 199.392C223.511 198.201 224.187 197.14 225.147 196.379C227.124 194.901 229.592 194.23 232.048 194.506C233.614 194.55 235.156 194.903 236.585 195.544C238.015 196.185 239.303 197.102 240.376 198.241C241.418 199.409 242.076 200.868 242.261 202.42C242.446 203.973 242.149 205.545 241.41 206.924C241.319 207.088 241.187 207.227 241.028 207.327C240.838 207.401 240.633 207.424 240.432 207.395C235.611 207.047 230.632 206.654 226.406 204.344" fill="#D61E34"/>
<path d="M230.733 188.897L250.39 193.945C250.461 192.66 250.177 191.379 249.57 190.244C248.71 189.161 247.53 188.376 246.198 188C241.317 186.137 236.167 185.072 230.946 184.848" fill="white"/>
</g>
<path d="M203.185 142.234C203.185 142.234 219.561 144.074 229.631 136.558C223.27 152.273 206.006 146.945 203.185 142.234Z" fill="#205175"/>
<path d="M277.106 153.81C277.106 153.81 261.956 147.327 256.875 135.863C254.673 152.621 272.33 156.491 277.106 153.81Z" fill="#205175"/>
<path d="M249.401 361.844C249.401 361.844 267.182 359.87 271.655 368.35C278.264 380.88 270.531 406.489 244.681 399.085C245.591 391.233 244.681 390.111 244.681 390.111C244.681 390.111 260.809 394.531 263.878 384.503C266.946 374.475 259.742 365.68 246.704 369.696C233.666 373.712 249.401 361.844 249.401 361.844Z" fill="#FFBD5D"/>
<path d="M196.565 348.989L203.758 412.03C203.758 412.03 232.306 424.817 248.502 412.478C251.2 392.512 255.246 348.989 255.246 348.989C255.246 348.989 226.237 338.209 196.565 348.989Z" fill="#FFD55D"/>
<path d="M224.158 408.889C233.742 408.889 241.511 397.941 241.511 384.436C241.511 370.93 233.742 359.982 224.158 359.982C214.574 359.982 206.804 370.93 206.804 384.436C206.804 397.941 214.574 408.889 224.158 408.889Z" fill="white"/>
<path d="M200.443 350.728C200.443 350.728 226.563 360.307 251.233 350.728C225.394 342.595 200.443 350.728 200.443 350.728Z" fill="#FFBD5D"/>
<path d="M227.293 329.292C226.282 327.048 224.236 325.444 222.371 323.807C219.1 320.957 216.088 317.491 215.11 313.274C214.365 309.635 214.976 305.849 216.83 302.629C217.869 300.691 219.321 299.005 221.085 297.689C222.848 296.373 224.879 295.459 227.035 295.012C229.208 294.599 231.455 294.835 233.495 295.691C235.534 296.547 237.275 297.985 238.499 299.824C240.747 303.582 239.96 309.09 236.341 311.602C233.498 313.599 229.227 313.846 227.619 316.942C226.293 319.488 227.619 322.629 229.362 324.883C231.104 327.138 233.419 329.101 234.397 331.804C234.771 332.906 234.912 334.072 234.811 335.231C234.711 336.389 234.37 337.514 233.812 338.535C232.846 340.318 230.182 343.022 227.844 342.36C225.821 341.777 226.63 339.421 227.035 337.873C227.766 335.001 228.541 332.119 227.293 329.292Z" fill="white"/>
<path d="M217.47 338.041C219.662 338.4 222.247 337.66 223.225 335.663C225.473 331.176 219.201 324.839 214.717 327.419C209.861 330.212 212.671 337.245 217.47 338.041Z" fill="white"/>
<path d="M207.479 287.227C207.808 288.4 208.377 289.493 209.151 290.435C209.925 291.377 210.886 292.149 211.974 292.701C213.725 293.707 215.762 294.102 217.763 293.823C218.758 293.665 219.703 293.278 220.524 292.695C221.345 292.111 222.019 291.345 222.494 290.458C223.123 289.099 223.319 287.58 223.056 286.106C222.852 284.634 222.303 283.231 221.454 282.011C220.604 280.791 219.478 279.788 218.167 279.084C216.92 278.382 215.495 278.061 214.067 278.16C212.639 278.259 211.272 278.774 210.134 279.641C208.997 280.507 208.139 281.688 207.667 283.037C207.195 284.385 207.129 285.842 207.479 287.227V287.227Z" fill="white"/>
<path d="M176.064 379.994L164.949 380.947C164.949 380.947 161.184 381.126 158.205 389.752C157.311 392.164 156.942 394.738 157.125 397.303C157.307 399.868 158.035 402.365 159.262 404.626C159.262 404.626 201.319 412.075 221.966 412.187C223.607 412.187 226.327 407.936 224.214 406.219C223.011 405.232 210.67 402.372 210.67 402.372C210.67 402.372 226.731 402.125 228.08 401.755C230.665 401.026 231.519 396.404 228.923 395.484C224.427 393.903 210.85 393.465 210.85 393.465C210.85 393.465 228.372 391.323 230.542 390.414C232.407 389.629 233.239 384.391 230.115 383.852C224.101 382.798 209.58 382.731 209.58 382.731C209.58 382.731 222.539 380.453 225.585 379.141C228.462 377.885 226.889 373.084 224.36 372.972C216.695 372.669 199.903 374.677 199.903 374.677L198.588 365.602C198.588 365.602 188.821 362.775 176.064 379.994Z" fill="#F5ABBC"/>
<path d="M313.409 203.928C306.404 218.347 298.553 232.34 289.897 245.836C283.445 255.931 291.279 262 291.279 262C291.279 262 290.717 275.999 296.663 276.122C307.16 276.347 308.689 261.798 308.689 261.798C308.689 261.798 314.309 260.755 317.073 257.132C327.818 242.953 320.041 205.117 318.669 206.744L313.409 203.928Z" fill="white"/>
<path d="M295.651 249.639C298.034 249.639 308.813 227.552 309.476 229.694C310.139 231.837 309.566 233.968 309.273 236.111C308.981 238.253 309.397 240.9 311.375 241.809C312.181 242.139 313.073 242.198 313.915 241.977C316.41 241.394 318.186 239.263 319.726 237.232C324.066 231.474 327.998 225.421 331.494 219.117C331.716 218.785 331.83 218.393 331.82 217.995C331.37 214.304 323.952 208.539 320.322 208.539C314.916 208.539 312.892 214.069 311.094 218.163C308.711 223.57 305.845 228.741 303.047 233.946C300.563 238.623 293.167 249.302 295.651 249.639Z" fill="#E6F7FF"/>
<path d="M350.578 235.628C350.578 235.628 348.544 210.322 347.094 202.964C346.633 200.642 345.723 196.548 339.687 200.126C333.123 196.761 322.727 192.801 320.288 192.801C315.579 192.801 311.162 197.838 308.689 199.172C306.823 200.171 308.082 209.806 307.823 214.989C307.711 217.4 312.488 216.884 313.443 215.314C316.556 209.997 313.522 207.462 313.522 207.462C313.522 207.462 315.657 214.585 317.725 216.896C313.14 226.823 317.343 240.037 325.087 244.344C325.087 244.344 325.795 247.26 326.942 247.496C331.808 248.506 340.845 247.496 344.441 244.972C351.623 239.857 350.578 235.628 350.578 235.628Z" fill="#F5ABBC"/>
<path d="M319.906 197.983C319.906 197.983 325.986 191.623 330.729 192.509C335.472 193.396 337.54 202.123 337.54 202.123" fill="#F5ABBC"/>
<path d="M329.684 197.277C329.684 197.277 335.169 193.25 338.732 195.471C342.295 197.692 343.306 206.419 343.306 206.419L329.684 203.312L328.729 197.277" fill="#F5ABBC"/>
<path d="M274.858 306.611C281.562 306.611 286.997 301.187 286.997 294.496C286.997 287.805 281.562 282.382 274.858 282.382C268.154 282.382 262.72 287.805 262.72 294.496C262.72 301.187 268.154 306.611 274.858 306.611Z" fill="#FFBD5D"/>
<path d="M278.309 302.797C282.902 300.898 285.084 295.642 283.181 291.058C281.278 286.473 276.012 284.296 271.418 286.195C266.825 288.094 264.643 293.35 266.546 297.935C268.449 302.519 273.715 304.696 278.309 302.797Z" fill="white"/>
<path d="M237.667 260.328H235.341L233.868 269.47L236.735 271.22L239.612 269.47L237.667 260.328ZM234.981 268.921L235.296 266.992H237.982L238.465 268.708L236.735 269.998L234.981 268.921Z" fill="#FFBD5D"/>
<path d="M235.835 260.788C235.835 260.788 235.431 258.119 236.431 257.951C237.431 257.782 237.072 260.788 237.072 260.788" fill="#FFBD5D"/>
<path d="M324.525 59.0631C328.958 57.2305 331.064 52.1583 329.227 47.734C327.391 43.3097 322.309 41.2088 317.876 43.0413C313.443 44.8739 311.338 49.9461 313.174 54.3704C315.01 58.7947 320.092 60.8957 324.525 59.0631Z" fill="#7BD158"/>
<path d="M381.509 10.7236C381.509 11.9904 381.132 13.2288 380.427 14.2821C379.722 15.3354 378.72 16.1563 377.547 16.6411C376.374 17.1259 375.084 17.2527 373.839 17.0056C372.594 16.7584 371.451 16.1484 370.553 15.2526C369.655 14.3569 369.044 13.2156 368.797 11.9732C368.549 10.7307 368.676 9.44289 369.162 8.27253C369.648 7.10216 370.47 6.10184 371.526 5.39804C372.581 4.69425 373.822 4.3186 375.091 4.3186C376.793 4.3186 378.425 4.99342 379.629 6.19459C380.833 7.39576 381.509 9.0249 381.509 10.7236V10.7236Z" fill="#7BD158"/>
<path d="M447.619 25.1265C447.619 25.5702 447.487 26.004 447.24 26.3729C446.993 26.7418 446.642 27.0294 446.231 27.1992C445.82 27.369 445.368 27.4134 444.932 27.3268C444.496 27.2403 444.096 27.0266 443.781 26.7128C443.467 26.3991 443.253 25.9994 443.166 25.5642C443.079 25.129 443.124 24.6779 443.294 24.268C443.464 23.858 443.752 23.5077 444.122 23.2611C444.492 23.0146 444.926 22.8831 445.371 22.8831C445.967 22.8831 446.539 23.1194 446.96 23.5401C447.382 23.9609 447.619 24.5315 447.619 25.1265Z" fill="#7BD158"/>
<path d="M51.1502 30.0284C51.1525 31.0006 50.8656 31.9516 50.3261 32.761C49.7865 33.5704 49.0184 34.2019 48.1191 34.5755C47.2197 34.9491 46.2296 35.048 45.2739 34.8597C44.3182 34.6714 43.44 34.2043 42.7504 33.5177C42.0608 32.831 41.5908 31.9556 41.4 31.0022C41.2091 30.0489 41.306 29.0604 41.6782 28.162C42.0505 27.2636 42.6814 26.4956 43.4912 25.9553C44.301 25.4149 45.2533 25.1265 46.2274 25.1265C47.5311 25.1265 48.7815 25.6426 49.7044 26.5615C50.6273 27.4805 51.1473 28.7273 51.1502 30.0284V30.0284Z" fill="#7BD158"/>
<path d="M116.957 131.634C116.957 132.881 116.586 134.099 115.892 135.136C115.198 136.173 114.212 136.981 113.057 137.458C111.903 137.935 110.633 138.06 109.408 137.817C108.183 137.573 107.057 136.973 106.174 136.091C105.29 135.21 104.689 134.086 104.445 132.864C104.201 131.641 104.326 130.373 104.804 129.221C105.283 128.069 106.092 127.085 107.131 126.392C108.17 125.699 109.391 125.33 110.64 125.33C111.47 125.33 112.291 125.493 113.057 125.81C113.824 126.126 114.52 126.591 115.107 127.176C115.693 127.761 116.158 128.456 116.476 129.221C116.793 129.986 116.957 130.806 116.957 131.634V131.634Z" fill="#7BD158"/>
<path d="M42.7994 294.126C42.8016 294.992 42.5461 295.839 42.0654 296.561C41.5846 297.282 40.9001 297.844 40.0987 298.177C39.2973 298.509 38.415 298.597 37.5637 298.428C36.7123 298.26 35.9303 297.843 35.3166 297.23C34.7029 296.618 34.2852 295.837 34.1164 294.988C33.9476 294.138 34.0354 293.258 34.3685 292.458C34.7017 291.658 35.2653 290.975 35.9878 290.495C36.7104 290.015 37.5594 289.76 38.4273 289.762C39.5859 289.765 40.6963 290.226 41.5156 291.044C42.3348 291.861 42.7964 292.97 42.7994 294.126V294.126Z" fill="#7BD158"/>
<path d="M83.2612 315.203C83.2612 315.775 83.0911 316.335 82.7725 316.811C82.4539 317.287 82.001 317.658 81.4711 317.877C80.9412 318.096 80.3582 318.153 79.7957 318.041C79.2332 317.93 78.7165 317.654 78.311 317.249C77.9055 316.845 77.6293 316.329 77.5174 315.768C77.4055 315.206 77.4629 314.624 77.6824 314.095C77.9019 313.567 78.2735 313.115 78.7504 312.797C79.2273 312.479 79.7879 312.309 80.3614 312.309C81.1305 312.309 81.868 312.614 82.4119 313.157C82.9557 313.699 83.2612 314.435 83.2612 315.203Z" fill="#7BD158"/>
<path d="M15.8812 387.644C19.1773 387.644 21.8493 384.977 21.8493 381.687C21.8493 378.398 19.1773 375.731 15.8812 375.731C12.5852 375.731 9.91315 378.398 9.91315 381.687C9.91315 384.977 12.5852 387.644 15.8812 387.644Z" fill="#7BD158"/>
<path d="M67.009 437.818C67.0112 438.198 66.9001 438.571 66.6898 438.888C66.4794 439.205 66.1794 439.453 65.8278 439.599C65.4761 439.746 65.0887 439.785 64.7149 439.711C64.341 439.637 63.9975 439.455 63.7281 439.186C63.4586 438.917 63.2753 438.574 63.2015 438.201C63.1277 437.828 63.1668 437.441 63.3136 437.09C63.4605 436.739 63.7085 436.44 64.0263 436.23C64.3441 436.02 64.7172 435.909 65.0983 435.911C65.6041 435.914 66.0884 436.116 66.4461 436.473C66.8038 436.83 67.006 437.313 67.009 437.818V437.818Z" fill="#7BD158"/>
<path d="M417.104 333.252C417.104 334.328 416.784 335.38 416.184 336.275C415.585 337.17 414.733 337.867 413.736 338.279C412.739 338.69 411.643 338.797 410.585 338.586C409.527 338.376 408.556 337.856 407.794 337.094C407.032 336.332 406.514 335.362 406.305 334.306C406.096 333.25 406.205 332.156 406.62 331.162C407.034 330.168 407.734 329.319 408.632 328.723C409.53 328.126 410.585 327.809 411.664 327.811C413.108 327.814 414.491 328.389 415.511 329.409C416.531 330.429 417.104 331.811 417.104 333.252Z" fill="#7BD158"/>
<path d="M455.464 418.087C455.464 418.861 455.234 419.618 454.803 420.262C454.372 420.906 453.759 421.408 453.042 421.704C452.325 422 451.537 422.078 450.776 421.927C450.015 421.776 449.316 421.403 448.767 420.855C448.219 420.308 447.845 419.61 447.694 418.851C447.543 418.091 447.62 417.304 447.917 416.589C448.214 415.874 448.717 415.262 449.362 414.832C450.007 414.402 450.765 414.172 451.541 414.172C452.056 414.172 452.566 414.273 453.042 414.47C453.518 414.667 453.95 414.955 454.315 415.319C454.679 415.682 454.968 416.114 455.165 416.589C455.362 417.064 455.464 417.573 455.464 418.087V418.087Z" fill="#7BD158"/>
<path d="M483 148.392C483.002 149.429 482.696 150.443 482.121 151.306C481.546 152.168 480.727 152.842 479.768 153.24C478.809 153.638 477.753 153.743 476.734 153.542C475.715 153.342 474.779 152.844 474.044 152.111C473.309 151.379 472.808 150.446 472.604 149.429C472.401 148.413 472.504 147.359 472.901 146.401C473.298 145.443 473.971 144.625 474.834 144.049C475.698 143.472 476.713 143.165 477.751 143.165C479.141 143.165 480.475 143.715 481.459 144.695C482.443 145.675 482.997 147.005 483 148.392V148.392Z" fill="#5FAD43"/>
<path d="M468.827 53.506C470.863 53.506 472.514 51.8587 472.514 49.8268C472.514 47.7948 470.863 46.1475 468.827 46.1475C466.791 46.1475 465.141 47.7948 465.141 49.8268C465.141 51.8587 466.791 53.506 468.827 53.506Z" fill="#5FAD43"/>
<path d="M82.5306 4.3074C83.7224 4.3074 84.6886 3.34316 84.6886 2.1537C84.6886 0.964244 83.7224 0 82.5306 0C81.3388 0 80.3727 0.964244 80.3727 2.1537C80.3727 3.34316 81.3388 4.3074 82.5306 4.3074Z" fill="#5FAD43"/>
<path d="M114.034 69.1652C114.034 70.1236 113.75 71.0605 113.216 71.8574C112.683 72.6543 111.924 73.2754 111.037 73.6421C110.15 74.0089 109.174 74.1049 108.232 73.9179C107.29 73.7309 106.425 73.2694 105.746 72.5917C105.067 71.914 104.604 71.0505 104.417 70.1105C104.23 69.1705 104.326 68.1962 104.693 67.3108C105.061 66.4253 105.683 65.6685 106.481 65.136C107.28 64.6036 108.219 64.3193 109.179 64.3193C109.817 64.3179 110.449 64.4422 111.039 64.6852C111.629 64.9282 112.164 65.2851 112.616 65.7354C113.067 66.1856 113.424 66.7204 113.668 67.309C113.911 67.8976 114.036 68.5284 114.034 69.1652Z" fill="#5FAD43"/>
<path d="M68.0993 338.221C68.1015 339.206 67.8108 340.17 67.2638 340.991C66.7168 341.811 65.9382 342.451 65.0265 342.83C64.1149 343.209 63.1111 343.309 62.1424 343.118C61.1736 342.927 60.2834 342.454 59.5844 341.758C58.8853 341.061 58.409 340.174 58.2155 339.208C58.022 338.241 58.1202 337.239 58.4976 336.329C58.8749 335.418 59.5145 334.639 60.3354 334.092C61.1563 333.544 62.1216 333.251 63.109 333.251C64.4306 333.251 65.6982 333.775 66.6337 334.706C67.5693 335.638 68.0963 336.902 68.0993 338.221Z" fill="#5FAD43"/>
<path d="M46.722 416.158C46.7242 416.547 46.6105 416.928 46.3952 417.253C46.18 417.577 45.8729 417.83 45.513 417.98C45.1532 418.13 44.7568 418.17 44.3742 418.095C43.9916 418.019 43.6401 417.832 43.3644 417.557C43.0886 417.282 42.9011 416.931 42.8255 416.549C42.75 416.167 42.7899 415.772 42.9401 415.413C43.0904 415.053 43.3442 414.747 43.6694 414.532C43.9946 414.317 44.3764 414.204 44.7664 414.206C45.285 414.206 45.7825 414.412 46.1492 414.778C46.516 415.144 46.722 415.64 46.722 416.158V416.158Z" fill="#5FAD43"/>
<path d="M26.3788 451.806C26.3788 452.842 26.071 453.855 25.4943 454.716C24.9175 455.578 24.0978 456.249 23.1387 456.646C22.1796 457.042 21.1242 457.146 20.1061 456.944C19.0879 456.742 18.1527 456.243 17.4186 455.51C16.6846 454.777 16.1847 453.844 15.9821 452.828C15.7796 451.812 15.8836 450.758 16.2808 449.801C16.6781 448.844 17.3508 448.026 18.214 447.45C19.0772 446.875 20.092 446.568 21.1301 446.568C21.8193 446.568 22.5019 446.703 23.1387 446.966C23.7755 447.23 24.3541 447.615 24.8415 448.102C25.3289 448.588 25.7155 449.166 25.9793 449.801C26.2431 450.437 26.3788 451.118 26.3788 451.806V451.806Z" fill="#5FAD43"/>
<path d="M477.751 371.637C477.751 372.524 477.487 373.392 476.993 374.129C476.499 374.867 475.797 375.442 474.976 375.782C474.154 376.122 473.25 376.21 472.378 376.037C471.506 375.864 470.705 375.437 470.076 374.809C469.448 374.182 469.019 373.382 468.846 372.512C468.672 371.642 468.761 370.739 469.102 369.92C469.442 369.1 470.018 368.399 470.758 367.906C471.497 367.413 472.366 367.15 473.255 367.15C474.448 367.15 475.591 367.622 476.434 368.464C477.277 369.305 477.751 370.447 477.751 371.637Z" fill="#5FAD43"/>
<path d="M386.038 393.432C386.038 394.574 385.699 395.691 385.063 396.641C384.427 397.591 383.523 398.332 382.465 398.769C381.407 399.206 380.244 399.32 379.121 399.098C377.998 398.875 376.967 398.324 376.157 397.517C375.348 396.709 374.796 395.679 374.573 394.559C374.35 393.438 374.464 392.277 374.902 391.221C375.34 390.165 376.082 389.263 377.034 388.628C377.986 387.994 379.105 387.655 380.25 387.655C381.784 387.658 383.255 388.267 384.34 389.35C385.424 390.433 386.035 391.9 386.038 393.432V393.432Z" fill="#5FAD43"/>
<path d="M420.217 443.999C420.219 444.845 419.97 445.672 419.501 446.376C419.032 447.08 418.364 447.63 417.581 447.955C416.799 448.28 415.938 448.367 415.106 448.203C414.275 448.039 413.511 447.633 412.911 447.036C412.311 446.439 411.902 445.677 411.736 444.848C411.57 444.019 411.654 443.159 411.977 442.377C412.301 441.595 412.85 440.927 413.555 440.457C414.259 439.987 415.087 439.736 415.935 439.736C417.068 439.739 418.153 440.189 418.956 440.987C419.758 441.786 420.211 442.868 420.217 443.999V443.999Z" fill="#5FAD43"/>
<path d="M374.237 457.033C375.683 457.033 376.856 455.863 376.856 454.419C376.856 452.976 375.683 451.806 374.237 451.806C372.79 451.806 371.618 452.976 371.618 454.419C371.618 455.863 372.79 457.033 374.237 457.033Z" fill="#5FAD43"/>
</g>
<path fill-rule="evenodd" clip-rule="evenodd" d="M411.317 162.212C412.928 166.946 412.649 172.12 410.539 176.654L417.442 180.529L414.877 185.097L407.712 181.075C405.944 183.15 403.76 184.831 401.302 186.009C398.843 187.187 396.165 187.836 393.44 187.914L393.533 195.645L388.295 195.708L388.192 187.35C386.504 186.929 384.879 186.282 383.362 185.429C378.76 182.845 374.599 179.779 370.905 176.332L365.299 182.074L361.55 178.414L367.225 172.602C362.432 167.326 358.552 161.289 355.742 154.738L345.892 157.505L344.473 152.461L353.866 149.824C351.931 144.069 350.817 138.071 350.555 132.006L342.599 132.105L342.537 126.864L350.543 126.768C350.847 118.87 352.614 111.096 355.753 103.841L348.597 99.824L351.162 95.2557L358.03 99.1116C358.262 98.6712 358.502 98.2346 358.746 97.7984C360.142 95.3049 362.072 93.1502 364.396 91.4882C366.721 89.8262 369.384 88.6978 372.195 88.1834L372.1 80.0795L377.339 80.0164L377.432 87.936C380.097 88.1705 382.756 88.9607 385.241 90.3558C388.202 92.0158 390.676 94.4214 392.418 97.3337C394.161 100.246 395.111 103.564 395.174 106.957L403.224 106.862L403.287 112.1L394.556 112.206C394.133 113.828 393.503 115.389 392.682 116.849C389.813 121.942 388.794 127.87 389.796 133.629L397.857 131.362L399.276 136.406L391.212 138.672C393.355 144.11 397.313 148.639 402.413 151.494C405.014 152.949 407.244 154.984 408.931 157.441L417.633 154.997L419.051 160.041L411.317 162.212V162.212ZM393.318 169.99C392.978 170.596 392.411 171.042 391.743 171.23C391.074 171.418 390.358 171.332 389.752 170.992C389.146 170.652 388.7 170.085 388.512 169.416C388.324 168.747 388.41 168.031 388.75 167.426C389.09 166.82 389.657 166.374 390.326 166.186C390.995 165.998 391.711 166.084 392.316 166.424C392.922 166.764 393.368 167.331 393.556 167.999C393.744 168.668 393.658 169.384 393.318 169.99ZM387.187 175.56C389.005 176.58 391.153 176.837 393.159 176.273C395.166 175.71 396.866 174.372 397.887 172.555C398.907 170.737 399.163 168.589 398.6 166.583C398.036 164.576 396.698 162.876 394.881 161.855C393.064 160.835 390.915 160.579 388.909 161.142C386.902 161.706 385.202 163.044 384.182 164.861C383.162 166.678 382.905 168.827 383.469 170.833C384.032 172.84 385.37 174.54 387.187 175.56ZM372.881 131.481C372.541 132.087 371.974 132.533 371.306 132.72C370.637 132.908 369.921 132.823 369.315 132.483C368.709 132.143 368.263 131.576 368.075 130.907C367.887 130.238 367.973 129.522 368.313 128.916C368.653 128.31 369.22 127.865 369.889 127.677C370.558 127.489 371.274 127.574 371.879 127.914C372.485 128.255 372.931 128.821 373.119 129.49C373.307 130.159 373.221 130.875 372.881 131.481ZM366.75 137.051C368.568 138.071 370.716 138.328 372.722 137.764C374.729 137.2 376.429 135.863 377.45 134.045C378.47 132.228 378.726 130.08 378.163 128.073C377.599 126.067 376.261 124.366 374.444 123.346C372.627 122.326 370.478 122.069 368.472 122.633C366.465 123.197 364.765 124.534 363.745 126.352C362.725 128.169 362.468 130.317 363.032 132.324C363.595 134.33 364.933 136.031 366.75 137.051ZM370.758 151.317C371.438 150.105 372.571 149.213 373.909 148.838C375.247 148.462 376.679 148.633 377.89 149.313C379.102 149.993 379.994 151.127 380.369 152.464C380.745 153.802 380.574 155.234 379.894 156.446C379.214 157.657 378.08 158.549 376.743 158.925C375.405 159.301 373.973 159.13 372.761 158.449C371.55 157.769 370.658 156.636 370.282 155.298C369.906 153.96 370.077 152.528 370.758 151.317V151.317ZM378.852 104.793C377.64 104.113 376.208 103.942 374.87 104.317C373.533 104.693 372.399 105.585 371.719 106.796C371.039 108.008 370.868 109.44 371.244 110.778C371.619 112.115 372.511 113.249 373.723 113.929C374.934 114.609 376.366 114.78 377.704 114.405C379.042 114.029 380.175 113.137 380.856 111.926C381.536 110.714 381.707 109.282 381.331 107.944C380.955 106.607 380.063 105.473 378.852 104.793V104.793Z" fill="#7BD158"/>
<path fill-rule="evenodd" clip-rule="evenodd" d="M59.7971 234.212C58.1862 238.946 58.4649 244.12 60.575 248.654L53.6724 252.529L56.237 257.097L63.4023 253.075C65.1703 255.15 67.3542 256.831 69.8127 258.009C72.2712 259.187 74.9496 259.836 77.6747 259.914L77.5809 267.645L82.8193 267.708L82.9218 259.35C84.6105 258.929 86.235 258.282 87.7519 257.429C92.3544 254.845 96.5151 251.779 100.21 248.332L105.815 254.074L109.564 250.414L103.889 244.602C108.682 239.326 112.563 233.289 115.372 226.738L125.222 229.505L126.641 224.461L117.249 221.824C119.183 216.069 120.297 210.071 120.559 204.006L128.515 204.105L128.577 198.864L120.572 198.768C120.267 190.87 118.5 183.096 115.361 175.841L122.517 171.824L119.952 167.256L113.084 171.112C112.852 170.671 112.613 170.235 112.368 169.798C110.972 167.305 109.043 165.15 106.718 163.488C104.393 161.826 101.73 160.698 98.9193 160.183L99.014 152.08L93.7756 152.016L93.6826 159.936C91.0175 160.171 88.358 160.961 85.8729 162.356C82.9127 164.016 80.4385 166.421 78.696 169.334C76.9534 172.246 76.0033 175.564 75.9399 178.957L67.89 178.862L67.8268 184.1L76.5587 184.206C76.981 185.828 77.6108 187.389 78.4326 188.849C81.301 193.942 82.3206 199.87 81.3187 205.629L73.2573 203.362L71.8384 208.406L79.9021 210.672C77.7588 216.11 73.8016 220.639 68.7008 223.494C66.1001 224.949 63.8699 226.984 62.1837 229.441L53.4817 226.997L52.0628 232.041L59.7971 234.212V234.212ZM77.7959 241.99C78.136 242.596 78.7028 243.042 79.3717 243.23C80.0405 243.418 80.7566 243.332 81.3624 242.992C81.9682 242.652 82.414 242.085 82.6019 241.416C82.7898 240.747 82.7043 240.031 82.3642 239.426C82.0241 238.82 81.4573 238.374 80.7885 238.186C80.1196 237.998 79.4036 238.084 78.7978 238.424C78.192 238.764 77.7461 239.331 77.5582 239.999C77.3704 240.668 77.4559 241.384 77.7959 241.99ZM83.927 247.56C82.1096 248.58 79.9614 248.837 77.9549 248.273C75.9484 247.71 74.248 246.372 73.2277 244.555C72.2074 242.737 71.9509 240.589 72.5146 238.583C73.0782 236.576 74.4158 234.876 76.2332 233.855C78.0505 232.835 80.1988 232.579 82.2053 233.142C84.2118 233.706 85.9122 235.044 86.9324 236.861C87.9527 238.678 88.2092 240.827 87.6456 242.833C87.082 244.84 85.7443 246.54 83.927 247.56ZM98.233 203.481C98.5731 204.087 99.1399 204.533 99.8087 204.72C100.478 204.908 101.194 204.823 101.799 204.483C102.405 204.143 102.851 203.576 103.039 202.907C103.227 202.238 103.141 201.522 102.801 200.916C102.461 200.31 101.894 199.865 101.226 199.677C100.557 199.489 99.8406 199.574 99.2348 199.914C98.629 200.255 98.1832 200.821 97.9953 201.49C97.8074 202.159 97.8929 202.875 98.233 203.481ZM104.364 209.051C102.547 210.071 100.398 210.328 98.3919 209.764C96.3854 209.2 94.685 207.863 93.6648 206.045C92.6445 204.228 92.388 202.08 92.9516 200.073C93.5152 198.067 94.8529 196.366 96.6702 195.346C98.4876 194.326 100.636 194.069 102.642 194.633C104.649 195.197 106.349 196.534 107.369 198.352C108.39 200.169 108.646 202.317 108.083 204.324C107.519 206.33 106.181 208.031 104.364 209.051ZM100.357 223.317C99.6765 222.105 98.5429 221.213 97.2053 220.838C95.8676 220.462 94.4354 220.633 93.2239 221.313C92.0123 221.993 91.1205 223.127 90.7448 224.464C90.369 225.802 90.54 227.234 91.2202 228.446C91.9004 229.657 93.034 230.549 94.3717 230.925C95.7093 231.301 97.1415 231.13 98.3531 230.449C99.5646 229.769 100.456 228.636 100.832 227.298C101.208 225.96 101.037 224.528 100.357 223.317V223.317ZM92.2624 176.793C93.474 176.113 94.9061 175.942 96.2438 176.317C97.5815 176.693 98.7151 177.585 99.3952 178.796C100.075 180.008 100.246 181.44 99.8707 182.778C99.4949 184.115 98.6032 185.249 97.3916 185.929C96.18 186.609 94.7479 186.78 93.4102 186.405C92.0725 186.029 90.9389 185.137 90.2588 183.926C89.5786 182.714 89.4076 181.282 89.7833 179.944C90.1591 178.607 91.0508 177.473 92.2624 176.793V176.793Z" fill="#7BD158"/>
<path fill-rule="evenodd" clip-rule="evenodd" d="M401.158 275.539C401.456 279.025 403.087 282.262 405.712 284.575L402.377 288.997L405.303 291.204L408.765 286.614C410.481 287.448 412.353 287.912 414.259 287.976C416.165 288.041 418.064 287.704 419.832 286.989L421.943 291.97L425.317 290.539L423.036 285.155C424 284.41 424.859 283.54 425.592 282.567C427.815 279.619 429.621 276.486 431.02 273.24L436.225 275.345L437.599 271.947L432.331 269.816C433.92 265.089 434.712 260.131 434.672 255.144L441.762 254.151L441.254 250.52L434.495 251.468C434.119 247.237 433.148 243.081 431.613 239.12L436.739 236.95L435.307 233.574L430.15 235.761C427.737 230.785 424.422 226.3 420.373 222.532L423.831 217.948L420.905 215.741L417.586 220.141C417.314 219.924 417.038 219.711 416.758 219.5C415.164 218.294 413.322 217.455 411.366 217.043C409.409 216.631 407.386 216.656 405.44 217.115L403.226 211.896L399.851 213.326L402.015 218.427C400.373 219.326 398.891 220.579 397.69 222.171C396.259 224.066 395.349 226.302 395.051 228.658C394.752 231.013 395.075 233.406 395.987 235.598L390.802 237.798L392.232 241.172L397.857 238.788C398.583 239.709 399.425 240.532 400.362 241.238C403.63 243.696 405.948 247.208 406.923 251.179L401.121 251.991L401.628 255.622L407.432 254.809C407.585 258.895 406.321 262.909 403.854 266.171C402.596 267.833 401.739 269.764 401.348 271.812L395.085 272.689L395.593 276.32L401.158 275.539V275.539ZM414.876 275.469C415.264 275.762 415.753 275.889 416.234 275.821C416.716 275.754 417.15 275.498 417.443 275.11C417.736 274.722 417.862 274.233 417.795 273.752C417.728 273.271 417.472 272.836 417.084 272.543C416.696 272.25 416.207 272.124 415.726 272.191C415.244 272.259 414.81 272.515 414.517 272.903C414.224 273.291 414.098 273.779 414.165 274.26C414.233 274.742 414.488 275.177 414.876 275.469ZM420.369 277.317C419.491 278.481 418.187 279.249 416.743 279.451C415.299 279.653 413.833 279.274 412.669 278.396C411.505 277.518 410.737 276.213 410.535 274.769C410.333 273.325 410.713 271.86 411.591 270.695C412.469 269.531 413.773 268.764 415.217 268.561C416.661 268.359 418.127 268.739 419.291 269.617C420.455 270.495 421.223 271.8 421.425 273.244C421.627 274.688 421.247 276.153 420.369 277.317ZM417.159 245.053C417.547 245.346 418.035 245.473 418.517 245.405C418.998 245.338 419.433 245.082 419.726 244.694C420.018 244.306 420.145 243.817 420.077 243.336C420.01 242.855 419.754 242.42 419.366 242.127C418.978 241.835 418.49 241.708 418.008 241.775C417.527 241.843 417.092 242.099 416.799 242.487C416.507 242.875 416.38 243.363 416.448 243.845C416.515 244.326 416.771 244.761 417.159 245.053ZM422.652 246.901C421.774 248.065 420.469 248.833 419.025 249.035C417.581 249.237 416.116 248.858 414.952 247.98C413.788 247.102 413.02 245.797 412.818 244.353C412.615 242.909 412.995 241.444 413.873 240.28C414.751 239.115 416.056 238.348 417.5 238.146C418.944 237.943 420.409 238.323 421.573 239.201C422.737 240.079 423.505 241.384 423.707 242.828C423.91 244.272 423.53 245.737 422.652 246.901ZM424.09 257.168C423.314 256.583 422.337 256.329 421.374 256.464C420.412 256.599 419.542 257.111 418.956 257.887C418.371 258.663 418.118 259.64 418.253 260.603C418.388 261.565 418.899 262.435 419.675 263.02C420.452 263.606 421.428 263.859 422.391 263.724C423.354 263.589 424.223 263.078 424.809 262.301C425.394 261.525 425.647 260.549 425.513 259.586C425.378 258.623 424.866 257.753 424.09 257.168V257.168ZM405.839 229.628C406.424 228.852 407.294 228.34 408.256 228.205C409.219 228.071 410.196 228.324 410.972 228.909C411.748 229.494 412.26 230.364 412.395 231.327C412.53 232.29 412.277 233.266 411.691 234.042C411.106 234.819 410.236 235.33 409.273 235.465C408.311 235.6 407.334 235.347 406.558 234.761C405.782 234.176 405.27 233.306 405.135 232.344C405 231.381 405.253 230.404 405.839 229.628V229.628Z" fill="#7BD158"/>
<defs>
<clipPath id="clip0_61_2360">
<rect width="483" height="520.5" fill="white"/>
</clipPath>
</defs>
</svg>
